<mxfile host="app.diagrams.net" agent="Mozilla/5.0 (X11; Linux x86_64; rv:109.0) Gecko/20100101 Firefox/115.0" version="24.7.14">
  <diagram name="Page-1" id="fklojEo50Bu_ostIvduY">
    <mxGraphModel dx="1472" dy="1929" grid="1" gridSize="10" guides="1" tooltips="1" connect="1" arrows="1" fold="1" page="1" pageScale="1" pageWidth="827" pageHeight="1169" math="0" shadow="0">
      <root>
        <mxCell id="0" />
        <mxCell id="1" parent="0" />
        <mxCell id="1s9Mzcpj6pY-UfdRcxoq-4" value="" style="swimlane;startSize=0;" parent="1" vertex="1">
          <mxGeometry x="190" y="10" width="980" height="710" as="geometry" />
        </mxCell>
        <mxCell id="1s9Mzcpj6pY-UfdRcxoq-2" value="client" style="shape=umlActor;verticalLabelPosition=bottom;verticalAlign=top;html=1;outlineConnect=0;fillColor=#d5e8d4;strokeColor=#82b366;" parent="1s9Mzcpj6pY-UfdRcxoq-4" vertex="1">
          <mxGeometry x="-150" y="140" width="50" height="80" as="geometry" />
        </mxCell>
        <mxCell id="1s9Mzcpj6pY-UfdRcxoq-5" value="Consulter des produits" style="ellipse;whiteSpace=wrap;html=1;fillColor=#cce5ff;strokeColor=#36393d;" parent="1s9Mzcpj6pY-UfdRcxoq-4" vertex="1">
          <mxGeometry x="497" y="20" width="140" height="70" as="geometry" />
        </mxCell>
        <mxCell id="1s9Mzcpj6pY-UfdRcxoq-6" value="Consulter des services" style="ellipse;whiteSpace=wrap;html=1;fillColor=#cce5ff;strokeColor=#36393d;" parent="1s9Mzcpj6pY-UfdRcxoq-4" vertex="1">
          <mxGeometry x="497" y="100" width="140" height="70" as="geometry" />
        </mxCell>
        <mxCell id="1s9Mzcpj6pY-UfdRcxoq-7" value="Passer une commande" style="ellipse;whiteSpace=wrap;html=1;fillColor=#cce5ff;strokeColor=#36393d;" parent="1s9Mzcpj6pY-UfdRcxoq-4" vertex="1">
          <mxGeometry x="120" y="280" width="140" height="70" as="geometry" />
        </mxCell>
        <mxCell id="1s9Mzcpj6pY-UfdRcxoq-8" value="Noter un produit/service&lt;br&gt;/store" style="ellipse;whiteSpace=wrap;html=1;fillColor=#cce5ff;strokeColor=#36393d;" parent="1s9Mzcpj6pY-UfdRcxoq-4" vertex="1">
          <mxGeometry x="107.5" y="380" width="165" height="70" as="geometry" />
        </mxCell>
        <mxCell id="1s9Mzcpj6pY-UfdRcxoq-9" value="&lt;div&gt;Commenter&amp;nbsp;&lt;/div&gt;&lt;div&gt;&amp;nbsp;un produit/service&lt;/div&gt;/store" style="ellipse;whiteSpace=wrap;html=1;fillColor=#cce5ff;strokeColor=#36393d;" parent="1s9Mzcpj6pY-UfdRcxoq-4" vertex="1">
          <mxGeometry x="107.5" y="460" width="165" height="70" as="geometry" />
        </mxCell>
        <mxCell id="1s9Mzcpj6pY-UfdRcxoq-10" value="Contacter l&#39;admin" style="ellipse;whiteSpace=wrap;html=1;fillColor=#cce5ff;strokeColor=#36393d;" parent="1s9Mzcpj6pY-UfdRcxoq-4" vertex="1">
          <mxGeometry x="107.5" y="540" width="140" height="70" as="geometry" />
        </mxCell>
        <mxCell id="1s9Mzcpj6pY-UfdRcxoq-11" value="Supprimer le compte" style="ellipse;whiteSpace=wrap;html=1;fillColor=#cce5ff;strokeColor=#36393d;" parent="1s9Mzcpj6pY-UfdRcxoq-4" vertex="1">
          <mxGeometry x="107.5" y="620" width="140" height="70" as="geometry" />
        </mxCell>
        <mxCell id="1s9Mzcpj6pY-UfdRcxoq-12" value="S&#39;authentifier" style="ellipse;whiteSpace=wrap;html=1;fillColor=#cdeb8b;strokeColor=#36393d;" parent="1s9Mzcpj6pY-UfdRcxoq-4" vertex="1">
          <mxGeometry x="830" y="280" width="140" height="70" as="geometry" />
        </mxCell>
        <mxCell id="1s9Mzcpj6pY-UfdRcxoq-13" value="&amp;lt;&amp;lt;include&amp;gt;&amp;gt;" style="endArrow=open;endSize=12;dashed=1;html=1;rounded=0;exitX=1;exitY=0.5;exitDx=0;exitDy=0;entryX=0.021;entryY=0.44;entryDx=0;entryDy=0;entryPerimeter=0;" parent="1s9Mzcpj6pY-UfdRcxoq-4" source="1s9Mzcpj6pY-UfdRcxoq-8" target="1s9Mzcpj6pY-UfdRcxoq-12" edge="1">
          <mxGeometry width="160" relative="1" as="geometry">
            <mxPoint x="235" y="141.89" as="sourcePoint" />
            <mxPoint x="454.57758505560196" y="248.11254095269726" as="targetPoint" />
          </mxGeometry>
        </mxCell>
        <mxCell id="1s9Mzcpj6pY-UfdRcxoq-15" value="&amp;lt;&amp;lt;include&amp;gt;&amp;gt;" style="endArrow=open;endSize=12;dashed=1;html=1;rounded=0;exitX=1;exitY=0.371;exitDx=0;exitDy=0;exitPerimeter=0;" parent="1s9Mzcpj6pY-UfdRcxoq-4" source="1s9Mzcpj6pY-UfdRcxoq-9" target="1s9Mzcpj6pY-UfdRcxoq-12" edge="1">
          <mxGeometry width="160" relative="1" as="geometry">
            <mxPoint x="190" y="420" as="sourcePoint" />
            <mxPoint x="390" y="536.5" as="targetPoint" />
          </mxGeometry>
        </mxCell>
        <mxCell id="1s9Mzcpj6pY-UfdRcxoq-16" value="&amp;lt;&amp;lt;include&amp;gt;&amp;gt;" style="endArrow=open;endSize=12;dashed=1;html=1;rounded=0;exitX=1;exitY=0.4;exitDx=0;exitDy=0;exitPerimeter=0;entryX=0.257;entryY=0.982;entryDx=0;entryDy=0;entryPerimeter=0;" parent="1s9Mzcpj6pY-UfdRcxoq-4" source="1s9Mzcpj6pY-UfdRcxoq-11" target="1s9Mzcpj6pY-UfdRcxoq-12" edge="1">
          <mxGeometry width="160" relative="1" as="geometry">
            <mxPoint x="170" y="592" as="sourcePoint" />
            <mxPoint x="384" y="360" as="targetPoint" />
          </mxGeometry>
        </mxCell>
        <mxCell id="tHASsSHhuQ-y8YBgm8is-2" value="payer par carte bancaire" style="ellipse;whiteSpace=wrap;html=1;fillColor=#ffe6cc;strokeColor=#d79b00;" parent="1s9Mzcpj6pY-UfdRcxoq-4" vertex="1">
          <mxGeometry x="269.99999999999994" y="150" width="140" height="70" as="geometry" />
        </mxCell>
        <mxCell id="tHASsSHhuQ-y8YBgm8is-6" value="&amp;lt;&amp;lt;extends&amp;gt;&amp;gt;" style="endArrow=open;endSize=12;dashed=1;html=1;rounded=0;exitX=0.574;exitY=0.018;exitDx=0;exitDy=0;exitPerimeter=0;" parent="1s9Mzcpj6pY-UfdRcxoq-4" source="1s9Mzcpj6pY-UfdRcxoq-7" target="tHASsSHhuQ-y8YBgm8is-2" edge="1">
          <mxGeometry width="160" relative="1" as="geometry">
            <mxPoint x="240.00013042016133" y="295.5513954813114" as="sourcePoint" />
            <mxPoint x="404.16999999999996" y="290" as="targetPoint" />
          </mxGeometry>
        </mxCell>
        <mxCell id="tHASsSHhuQ-y8YBgm8is-7" value="payer Ã  livraison" style="ellipse;whiteSpace=wrap;html=1;fillColor=#ffe6cc;strokeColor=#d79b00;" parent="1s9Mzcpj6pY-UfdRcxoq-4" vertex="1">
          <mxGeometry x="337.16999999999996" y="220" width="140" height="70" as="geometry" />
        </mxCell>
        <mxCell id="tHASsSHhuQ-y8YBgm8is-9" value="&amp;lt;&amp;lt;extends&amp;gt;&amp;gt;" style="endArrow=open;endSize=12;dashed=1;html=1;rounded=0;exitX=0.77;exitY=0.092;exitDx=0;exitDy=0;exitPerimeter=0;" parent="1s9Mzcpj6pY-UfdRcxoq-4" source="1s9Mzcpj6pY-UfdRcxoq-7" edge="1">
          <mxGeometry width="160" relative="1" as="geometry">
            <mxPoint x="257.9383889631698" y="303.8464731519016" as="sourcePoint" />
            <mxPoint x="347.16999999999996" y="270" as="targetPoint" />
          </mxGeometry>
        </mxCell>
        <mxCell id="tHASsSHhuQ-y8YBgm8is-11" value="&amp;lt;&amp;lt;include&amp;gt;&amp;gt;" style="endArrow=open;endSize=12;dashed=1;html=1;rounded=0;entryX=0.5;entryY=0;entryDx=0;entryDy=0;exitX=1;exitY=0.6;exitDx=0;exitDy=0;exitPerimeter=0;" parent="1s9Mzcpj6pY-UfdRcxoq-4" source="1s9Mzcpj6pY-UfdRcxoq-7" target="1s9Mzcpj6pY-UfdRcxoq-12" edge="1">
          <mxGeometry width="160" relative="1" as="geometry">
            <mxPoint x="360" y="192" as="sourcePoint" />
            <mxPoint x="486" y="320" as="targetPoint" />
          </mxGeometry>
        </mxCell>
        <mxCell id="BJ8kD2auI6B-1hflzSCD-1" value="&amp;lt;&amp;lt;include&amp;gt;&amp;gt;" style="endArrow=open;endSize=12;dashed=1;html=1;rounded=0;exitX=0.964;exitY=0.4;exitDx=0;exitDy=0;exitPerimeter=0;entryX=0;entryY=1;entryDx=0;entryDy=0;" parent="1s9Mzcpj6pY-UfdRcxoq-4" source="1s9Mzcpj6pY-UfdRcxoq-10" edge="1" target="1s9Mzcpj6pY-UfdRcxoq-12">
          <mxGeometry width="160" relative="1" as="geometry">
            <mxPoint x="230" y="436" as="sourcePoint" />
            <mxPoint x="442" y="321" as="targetPoint" />
          </mxGeometry>
        </mxCell>
        <mxCell id="1s9Mzcpj6pY-UfdRcxoq-18" value="" style="endArrow=none;html=1;rounded=0;entryX=0;entryY=0.5;entryDx=0;entryDy=0;" parent="1s9Mzcpj6pY-UfdRcxoq-4" target="1s9Mzcpj6pY-UfdRcxoq-6" edge="1">
          <mxGeometry relative="1" as="geometry">
            <mxPoint x="-90" y="177.9411764705883" as="sourcePoint" />
            <mxPoint x="67" y="162" as="targetPoint" />
          </mxGeometry>
        </mxCell>
        <mxCell id="1s9Mzcpj6pY-UfdRcxoq-19" value="" style="endArrow=none;html=1;rounded=0;entryX=0;entryY=0.5;entryDx=0;entryDy=0;" parent="1s9Mzcpj6pY-UfdRcxoq-4" target="1s9Mzcpj6pY-UfdRcxoq-7" edge="1">
          <mxGeometry relative="1" as="geometry">
            <mxPoint x="-90" y="190" as="sourcePoint" />
            <mxPoint x="77" y="172" as="targetPoint" />
          </mxGeometry>
        </mxCell>
        <mxCell id="1s9Mzcpj6pY-UfdRcxoq-20" value="" style="endArrow=none;html=1;rounded=0;entryX=0;entryY=0.5;entryDx=0;entryDy=0;" parent="1s9Mzcpj6pY-UfdRcxoq-4" target="1s9Mzcpj6pY-UfdRcxoq-8" edge="1">
          <mxGeometry relative="1" as="geometry">
            <mxPoint x="-90" y="200" as="sourcePoint" />
            <mxPoint x="87" y="182" as="targetPoint" />
          </mxGeometry>
        </mxCell>
        <mxCell id="1s9Mzcpj6pY-UfdRcxoq-21" value="" style="endArrow=none;html=1;rounded=0;entryX=0;entryY=0.5;entryDx=0;entryDy=0;" parent="1s9Mzcpj6pY-UfdRcxoq-4" target="1s9Mzcpj6pY-UfdRcxoq-9" edge="1">
          <mxGeometry relative="1" as="geometry">
            <mxPoint x="-90" y="220" as="sourcePoint" />
            <mxPoint x="45" y="405" as="targetPoint" />
          </mxGeometry>
        </mxCell>
        <mxCell id="1s9Mzcpj6pY-UfdRcxoq-22" value="" style="endArrow=none;html=1;rounded=0;entryX=0;entryY=0.5;entryDx=0;entryDy=0;" parent="1s9Mzcpj6pY-UfdRcxoq-4" target="1s9Mzcpj6pY-UfdRcxoq-10" edge="1">
          <mxGeometry relative="1" as="geometry">
            <mxPoint x="-90" y="230" as="sourcePoint" />
            <mxPoint x="65" y="475" as="targetPoint" />
          </mxGeometry>
        </mxCell>
        <mxCell id="1s9Mzcpj6pY-UfdRcxoq-23" value="" style="endArrow=none;html=1;rounded=0;" parent="1s9Mzcpj6pY-UfdRcxoq-4" target="1s9Mzcpj6pY-UfdRcxoq-5" edge="1">
          <mxGeometry relative="1" as="geometry">
            <mxPoint x="-90" y="168.75" as="sourcePoint" />
            <mxPoint x="50" y="170" as="targetPoint" />
          </mxGeometry>
        </mxCell>
        <mxCell id="1s9Mzcpj6pY-UfdRcxoq-24" value="&lt;b&gt;&lt;font style=&quot;font-size: 15px;&quot; color=&quot;#1a5fb4&quot;&gt;Use Case Client annuaire digital d&#39;entreprises&lt;/font&gt;&lt;/b&gt;" style="text;html=1;align=center;verticalAlign=middle;resizable=0;points=[];autosize=1;strokeColor=none;fillColor=none;" parent="1s9Mzcpj6pY-UfdRcxoq-4" vertex="1">
          <mxGeometry x="315" y="-30" width="350" height="30" as="geometry" />
        </mxCell>
        <mxCell id="tHASsSHhuQ-y8YBgm8is-1" value="" style="endArrow=none;html=1;rounded=0;entryX=0;entryY=0.5;entryDx=0;entryDy=0;" parent="1s9Mzcpj6pY-UfdRcxoq-4" target="1s9Mzcpj6pY-UfdRcxoq-11" edge="1">
          <mxGeometry relative="1" as="geometry">
            <mxPoint x="-90" y="240" as="sourcePoint" />
            <mxPoint x="65" y="525" as="targetPoint" />
          </mxGeometry>
        </mxCell>
      </root>
    </mxGraphModel>
  </diagram>
</mxfile>
